<?xml version="1.0" encoding="UTF-8"?>
<svg version="1.1" xmlns="http://www.w3.org/2000/svg" width="600" height="337">
<path d="M0 0 C0.87815233 -0.00085442 1.75630466 -0.00170885 2.66106766 -0.00258917 C5.60293856 -0.00423599 8.5447524 0.00126439 11.48661804 0.00672913 C13.59570311 0.0070112 15.70478828 0.00685288 17.81387329 0.00628662 C23.54067588 0.00599942 29.26745758 0.01188374 34.9942553 0.01886058 C40.9787029 0.0251069 46.96315096 0.02569893 52.94760132 0.02688599 C64.28054897 0.02999552 75.61348698 0.03820384 86.94643039 0.04823548 C99.8483552 0.05940832 112.75028048 0.06491002 125.65220892 0.06993091 C152.19296457 0.08038675 178.73371167 0.09797891 205.27445984 0.12025452 C204.96570275 1.72814447 204.65342195 3.33535805 204.33964539 4.942276 C204.16612045 5.83736374 203.99259552 6.73245148 203.81381226 7.65466309 C202.19010367 15.07727184 197.77081776 21.15446753 193.04008484 26.94447327 C190.80338964 29.70075474 188.7684848 32.58555032 186.73149109 35.49134827 C185.07886965 37.33891701 183.4899753 38.06066016 181.27445984 39.12025452 C180.94445984 39.78025452 180.61445984 40.44025452 180.27445984 41.12025452 C169.87908241 47.66051965 157.58687007 54.34148451 145.12840271 54.40113831 C144.43204437 54.40708055 143.73568602 54.41302279 143.01822591 54.41914511 C140.69701219 54.43641582 138.37600602 54.43952667 136.05473328 54.44252014 C134.38536137 54.45178381 132.71599368 54.46183412 131.04663086 54.47261047 C126.51960113 54.49879138 121.99263064 54.51173506 117.46553707 54.52063179 C114.63416949 54.52650382 111.80281792 54.53471539 108.97145844 54.54364014 C100.10385045 54.57097172 91.23627926 54.59031425 82.36863208 54.59804392 C72.14854789 54.60700269 61.92899904 54.64209401 51.7090776 54.70004511 C43.79802672 54.74333973 35.88712614 54.76345568 27.97595811 54.76612616 C23.25605293 54.76821782 18.5366516 54.77993693 13.81687164 54.81576538 C9.37445545 54.848834 4.93291896 54.85298769 0.4904232 54.83548737 C-1.13408841 54.83395227 -2.75864837 54.84255773 -4.38303947 54.86240387 C-13.81408788 54.97081271 -21.13770828 54.41702472 -28.72554016 48.12025452 C-33.39619587 43.47911322 -36.6602637 38.09175146 -36.94429016 31.41712952 C-36.61299691 27.93855039 -35.66505365 24.76970432 -34.51460266 21.47962952 C-33.70000999 19.04391679 -33.18217901 16.64519871 -32.72554016 14.12025452 C-32.06554016 14.12025452 -31.40554016 14.12025452 -30.72554016 14.12025452 C-29.51897766 12.57337952 -29.51897766 12.57337952 -28.28804016 10.99525452 C-20.89031251 2.03052051 -11.04329233 -0.03931965 0 0 Z " fill="#77CCDE" transform="translate(209.7255401611328,214.87974548339844)"/>
<path d="M0 0 C-1.738208 11.12777125 -7.70719813 18.64267149 -15 27 C-14.43410156 28.10859375 -13.86820313 29.2171875 -13.28515625 30.359375 C-12.54405825 31.82280903 -11.80318456 33.28635667 -11.0625 34.75 C-10.68931641 35.47960937 -10.31613281 36.20921875 -9.93164062 36.9609375 C-9.57392578 37.66992188 -9.21621094 38.37890625 -8.84765625 39.109375 C-8.3527771 40.08342285 -8.3527771 40.08342285 -7.84790039 41.07714844 C-5.92429483 45.43946269 -5.96602704 49.24620166 -6 54 C-27.52279323 54.07009892 -49.04556763 54.12299253 -70.56845188 54.15543652 C-80.56203084 54.17090161 -90.55553885 54.19198433 -100.54907227 54.22631836 C-109.26001866 54.25623162 -117.97091365 54.27557761 -126.68190998 54.28226548 C-131.29379351 54.28617447 -135.90553002 54.29535373 -140.51736641 54.31719017 C-144.86016779 54.33758574 -149.20276189 54.34382759 -153.54560661 54.33932304 C-155.13749697 54.34014687 -156.72939442 54.34609426 -158.32124329 54.35761642 C-160.49981996 54.37260905 -162.67762066 54.36892957 -164.85621643 54.36076355 C-166.68274923 54.36491162 -166.68274923 54.36491162 -168.54618168 54.36914349 C-175.15182906 53.66313307 -181.11701359 50.48491686 -186 46 C-187.3125 43.5 -187.3125 43.5 -188 41 C-188.50466797 39.84564453 -188.50466797 39.84564453 -189.01953125 38.66796875 C-191.69319626 31.39261734 -190.26529444 24.07821022 -187.11328125 17.2109375 C-186.74589844 16.48132813 -186.37851563 15.75171875 -186 15 C-185.484375 13.948125 -184.96875 12.89625 -184.4375 11.8125 C-178.88362824 5.40418643 -170.54453246 0.49151526 -162.01623917 -0.26450634 C-160.43356058 -0.2747507 -160.43356058 -0.2747507 -158.81890869 -0.28520203 C-156.99023506 -0.30411499 -156.99023506 -0.30411499 -155.12461853 -0.32341003 C-153.78653009 -0.32736948 -152.44844106 -0.3311318 -151.11035156 -0.3347168 C-149.69040784 -0.34566238 -148.27047042 -0.35745427 -146.85054016 -0.37002563 C-143.00065675 -0.40156502 -139.15080042 -0.42085983 -135.30082798 -0.43764853 C-131.25330472 -0.45707873 -127.20585537 -0.48678903 -123.15838623 -0.51509094 C-116.34927055 -0.56114773 -109.54014529 -0.59952746 -102.73095703 -0.63305664 C-94.90242473 -0.67167003 -87.07401851 -0.72093776 -79.24558854 -0.77638692 C-71.67872649 -0.82984065 -64.11183832 -0.87683356 -56.54491425 -0.92057228 C-53.34444478 -0.93910491 -50.14399697 -0.95958058 -46.94355011 -0.98166466 C-14.94506683 -1.19737162 -14.94506683 -1.19737162 0 0 Z " fill="#78CCDE" transform="translate(422,142)"/>
<path d="M0 0 C0.93934891 -0.00525696 1.87869781 -0.01051392 2.84651184 -0.01593018 C5.9319453 -0.02906383 9.01685678 -0.02041336 12.10229492 -0.01025391 C14.26169432 -0.01227705 16.42109304 -0.01519049 18.58049011 -0.01895142 C23.1002759 -0.02336624 27.61988343 -0.01697262 32.13964844 -0.00292969 C37.90940264 0.01413068 43.67873715 0.0043354 49.44847584 -0.01364708 C53.90711069 -0.02453394 58.36564756 -0.02101561 62.82428551 -0.0132637 C64.95037575 -0.01127363 67.07647513 -0.01367867 69.2025547 -0.02070236 C90.44597771 -0.07547149 90.44597771 -0.07547149 99.27026367 3.38818359 C100.36338867 3.80197266 101.45651367 4.21576172 102.58276367 4.64208984 C110.27914421 8.38960072 116.49444177 13.06661475 122.27026367 19.38818359 C122.27026367 20.04818359 122.27026367 20.70818359 122.27026367 21.38818359 C122.93026367 21.38818359 123.59026367 21.38818359 124.27026367 21.38818359 C125.10845525 23.010683 125.94067527 24.63626856 126.77026367 26.26318359 C127.23432617 27.16810547 127.69838867 28.07302734 128.17651367 29.00537109 C129.27026367 31.38818359 129.27026367 31.38818359 129.27026367 33.38818359 C129.93026367 33.71818359 130.59026367 34.04818359 131.27026367 34.38818359 C131.90307617 36.82958984 131.90307617 36.82958984 132.39526367 39.95068359 C132.5628418 40.96259766 132.73041992 41.97451172 132.90307617 43.01708984 C133.32044493 46.84889028 133.29360284 50.53448954 133.27026367 54.38818359 C114.11165091 54.45832175 94.95306428 54.51119532 75.79434967 54.54362011 C66.89825646 54.5590769 58.00224312 54.58014368 49.10620117 54.61450195 C41.35074989 54.64444072 33.59535646 54.66376723 25.839849 54.67044908 C21.73486003 54.67435376 17.63003654 54.68350546 13.52510071 54.70537376 C9.65751872 54.72580973 5.79016961 54.73200311 1.92253876 54.72750664 C0.50683576 54.72832867 -0.90887542 54.73425197 -2.32453156 54.74580002 C-13.27061985 54.83067507 -20.84063 53.91248955 -29.03442383 46.20068359 C-33.87683309 41.02354558 -34.69852319 35.24467069 -34.72973633 28.38818359 C-34.19830712 19.95713108 -29.80951616 13.26438159 -23.77270508 7.52880859 C-16.40503535 1.65792384 -9.22103157 -0.06433948 0 0 Z " fill="#79CBDE" transform="translate(292.729736328125,68.61181640625)"/>
<path d="M0 0 C4.04661602 3.39601167 6.155383 7.04310967 8.21484375 11.86328125 C9.10612754 14.15236597 9.10612754 14.15236597 11.1875 16 C10.5275 16 9.8675 16 9.1875 16 C9.435 16.928125 9.6825 17.85625 9.9375 18.8125 C10.8240043 25.47471412 8.0092698 31.49375022 4.16015625 36.7890625 C-1.92226852 43.83843685 -8.49802279 49.16042522 -18.05859375 50.2578125 C-25.47655112 50.60498679 -32.1352572 49.12427396 -37.890625 44.234375 C-42.81169074 38.98248131 -45.39479712 33.75932594 -46.1875 26.625 C-45.20006828 17.07982673 -42.0183431 9.84341099 -34.9609375 3.27734375 C-24.81380064 -4.9495182 -11.14611818 -7.88973975 0 0 Z " fill="#7C8081" transform="translate(236.8125,73)"/>
<path d="M0 0 C0.87815233 -0.00085442 1.75630466 -0.00170885 2.66106766 -0.00258917 C5.60293856 -0.00423599 8.5447524 0.00126439 11.48661804 0.00672913 C13.59570311 0.0070112 15.70478828 0.00685288 17.81387329 0.00628662 C23.54067588 0.00599942 29.26745758 0.01188374 34.9942553 0.01886058 C40.9787029 0.0251069 46.96315096 0.02569893 52.94760132 0.02688599 C64.28054897 0.02999552 75.61348698 0.03820384 86.94643039 0.04823548 C99.8483552 0.05940832 112.75028048 0.06491002 125.65220892 0.06993091 C152.19296457 0.08038675 178.73371167 0.09797891 205.27445984 0.12025452 C204.96570275 1.72814447 204.65342195 3.33535805 204.33964539 4.942276 C204.16612045 5.83736374 203.99259552 6.73245148 203.81381226 7.65466309 C202.19010367 15.07727184 197.77081776 21.15446753 193.04008484 26.94447327 C190.80338964 29.70075474 188.7684848 32.58555032 186.73149109 35.49134827 C185.07886965 37.33891701 183.4899753 38.06066016 181.27445984 39.12025452 C180.94445984 39.78025452 180.61445984 40.44025452 180.27445984 41.12025452 C169.86270698 47.67082227 157.55604767 54.37291975 145.0745697 54.36749268 C144.37256683 54.36990709 143.67056396 54.37232151 142.94728827 54.37480909 C140.60735607 54.38042131 138.26769987 54.37180202 135.92778015 54.36317444 C134.24543179 54.3642479 132.56308378 54.36618754 130.8807373 54.368927 C126.32114971 54.37376675 121.76166027 54.36613158 117.20208454 54.35597396 C112.43175686 54.34718381 107.66143216 54.34895106 102.89109802 54.34933472 C94.88491678 54.34839881 86.87877349 54.33972288 78.87260437 54.32606506 C69.60782202 54.31031888 60.34308117 54.30506774 51.07828641 54.30580062 C42.17008719 54.30641018 33.26190151 54.30131268 24.35370636 54.2930088 C20.55948023 54.28947261 16.76525889 54.28764509 12.97103119 54.2871151 C8.50919251 54.28611317 4.04738888 54.28002891 -0.41443825 54.26994896 C-2.05518441 54.26701996 -3.6959346 54.2657994 -5.33668327 54.2663765 C-7.56902139 54.2668647 -9.80126026 54.26123622 -12.03358459 54.25396729 C-13.2849609 54.25229144 -14.5363372 54.2506156 -15.825634 54.24888897 C-18.72554016 54.12025452 -18.72554016 54.12025452 -20.72554016 53.12025452 C-20.72554016 52.46025452 -20.72554016 51.80025452 -20.72554016 51.12025452 C-19.43069608 51.12716796 -19.43069608 51.12716796 -18.10969353 51.13422108 C2.94175517 51.24487672 23.99315341 51.32749668 45.04483223 51.37931538 C55.22548525 51.40504372 65.40594356 51.44009109 75.58647156 51.49745178 C84.46485528 51.54745168 93.34309791 51.57958451 102.22161853 51.59069699 C106.91823421 51.59718778 111.61444642 51.61232971 116.31093216 51.6489048 C120.74167232 51.68312709 125.17184713 51.69325521 129.60270691 51.68579292 C131.21909037 51.68715586 132.83549496 51.69693104 134.45176315 51.71628189 C143.90665295 51.8238209 151.31742295 51.00145638 160.13287163 47.29170513 C163.52441037 46.02705175 166.68579101 45.51593981 170.27445984 45.12025452 C170.27445984 44.13025452 170.27445984 43.14025452 170.27445984 42.12025452 C171.59445984 42.12025452 172.91445984 42.12025452 174.27445984 42.12025452 C174.27445984 41.46025452 174.27445984 40.80025452 174.27445984 40.12025452 C177.27445984 38.12025452 177.27445984 38.12025452 180.27445984 38.12025452 C180.27445984 37.46025452 180.27445984 36.80025452 180.27445984 36.12025452 C182.64945984 33.49525452 182.64945984 33.49525452 185.27445984 31.12025452 C185.93445984 31.12025452 186.59445984 31.12025452 187.27445984 31.12025452 C187.93445984 29.80025452 188.59445984 28.48025452 189.27445984 27.12025452 C189.93445984 27.12025452 190.59445984 27.12025452 191.27445984 27.12025452 C191.37758484 26.56466858 191.48070984 26.00908264 191.58695984 25.43666077 C192.41639158 22.64204131 193.72644403 20.52490472 195.27445984 18.05775452 C196.96242331 15.35944753 198.26495345 13.14877368 199.27445984 10.12025452 C199.93445984 10.12025452 200.59445984 10.12025452 201.27445984 10.12025452 C201.60445984 7.48025452 201.93445984 4.84025452 202.27445984 2.12025452 C175.19692509 2.22755781 148.11941789 2.34033069 121.04193306 2.45959377 C108.46906065 2.51484396 95.8961854 2.56831234 83.32328796 2.61756897 C72.36325229 2.66051145 61.4032368 2.70681455 50.44323242 2.75713307 C44.6413976 2.78365306 38.83956657 2.80850381 33.03770828 2.82932854 C27.57292746 2.84899653 22.1081848 2.87316987 16.64343834 2.90074539 C14.64162455 2.91006225 12.63980242 2.91775647 10.63797569 2.92367363 C7.89576021 2.93202675 5.1536351 2.94632763 2.41145325 2.96203613 C1.62737347 2.96301424 0.84329369 2.96399235 0.03545392 2.96500009 C-5.59624603 3.00622054 -11.13145305 3.48123371 -16.72554016 4.12025452 C-16.72554016 4.78025452 -16.72554016 5.44025452 -16.72554016 6.12025452 C-18.37007141 7.52259827 -18.37007141 7.52259827 -20.53804016 9.05775452 C-26.4151847 13.24348041 -29.69627648 17.07810679 -31.72554016 24.12025452 C-32.29683638 30.582078 -31.90022829 36.75019776 -30.72554016 43.12025452 C-30.06554016 43.12025452 -29.40554016 43.12025452 -28.72554016 43.12025452 C-27.37121341 44.43225856 -26.03820534 45.76656855 -24.72554016 47.12025452 C-24.06554016 47.45025452 -23.40554016 47.78025452 -22.72554016 48.12025452 C-22.72554016 49.11025452 -22.72554016 50.10025452 -22.72554016 51.12025452 C-28.3529167 49.79616592 -30.7722633 45.73810561 -33.72554016 41.12025452 C-36.66789606 35.3756549 -37.22628244 30.15317916 -35.35054016 23.99525452 C-34.9367511 22.78482483 -34.9367511 22.78482483 -34.51460266 21.54994202 C-33.71548192 19.0892831 -33.18716212 16.66370099 -32.72554016 14.12025452 C-32.06554016 14.12025452 -31.40554016 14.12025452 -30.72554016 14.12025452 C-29.51897766 12.57337952 -29.51897766 12.57337952 -28.28804016 10.99525452 C-20.89031251 2.03052051 -11.04329233 -0.03931965 0 0 Z " fill="#7FC5D3" transform="translate(209.7255401611328,214.87974548339844)"/>
<path d="M0 0 C12.38084666 0.24761693 22.4311007 7.71975325 31.0859375 15.86328125 C33 18 33 18 33 20 C33.66 20 34.32 20 35 20 C35.83819158 21.62249941 36.6704116 23.24808497 37.5 24.875 C37.9640625 25.77992187 38.428125 26.68484375 38.90625 27.6171875 C40 30 40 30 40 32 C40.66 32.33 41.32 32.66 42 33 C42.6328125 35.44140625 42.6328125 35.44140625 43.125 38.5625 C43.29257812 39.57441406 43.46015625 40.58632812 43.6328125 41.62890625 C44.05018126 45.46070668 44.02333917 49.14630595 44 53 C24.84138724 53.07013816 5.6828006 53.12301172 -13.475914 53.15543652 C-22.37200721 53.17089331 -31.26802056 53.19196008 -40.1640625 53.22631836 C-47.91951378 53.25625712 -55.67490721 53.27558364 -63.43041468 53.28226548 C-67.53540364 53.28617017 -71.64022713 53.29532187 -75.74516296 53.31719017 C-79.61274495 53.33762614 -83.48009406 53.34381952 -87.34772491 53.33932304 C-88.76342791 53.34014508 -90.17913909 53.34606837 -91.59479523 53.35761642 C-101.0619845 53.43102422 -109.05086442 53.27379975 -116.375 46.5625 C-117.34566406 45.69818359 -117.34566406 45.69818359 -118.3359375 44.81640625 C-120.04878163 42.94675245 -121.07840278 41.35679288 -122 39 C-121.625 36.75 -121.625 36.75 -121 35 C-121 35.99 -121 36.98 -121 38 C-120.34 38 -119.68 38 -119 38 C-118.71125 38.886875 -118.4225 39.77375 -118.125 40.6875 C-114.65495025 46.09669519 -108.95519043 48.01493652 -103 50 C-101.04681943 50.1028371 -99.09032585 50.14638524 -97.13447571 50.15821838 C-95.29821121 50.17290161 -95.29821121 50.17290161 -93.42485046 50.18788147 C-92.06619302 50.19378562 -90.70753516 50.19959607 -89.34887695 50.20532227 C-87.9198783 50.21490123 -86.49088249 50.22491132 -85.06188965 50.23532104 C-81.17997781 50.26237424 -77.2980538 50.28338156 -73.41609979 50.30332303 C-69.3601562 50.32518002 -65.30425012 50.35257011 -61.24833679 50.37937927 C-53.56673391 50.42931004 -45.88511021 50.47424745 -38.20346659 50.51740164 C-29.45867773 50.56677072 -20.7139265 50.62169007 -11.96917403 50.67708123 C6.02051571 50.79090717 24.01024096 50.89774489 42 51 C41.68372583 49.40474342 41.36668246 47.80963933 41.04931641 46.21459961 C40.87284576 45.32630966 40.69637512 44.43801971 40.51455688 43.52281189 C37.72614127 29.85153806 32.2199902 19.52719255 21 11 C20.01 10.505 20.01 10.505 19 10 C19 9.34 19 8.68 19 8 C18.319375 7.896875 17.63875 7.79375 16.9375 7.6875 C14.0692457 7.01620644 11.59322907 5.96947958 8.9140625 4.765625 C5.6931899 3.47727596 2.37808501 2.77044044 -1 2 C-0.67 1.34 -0.34 0.68 0 0 Z " fill="#7FC5D3" transform="translate(382,70)"/>
<path d="M0 0 C-1.69079363 10.82423095 -7.42536556 19.17238169 -15 27 C-15.66 27 -16.32 27 -17 27 C-17 26.01 -17 25.02 -17 24 C-16.01 24 -15.02 24 -14 24 C-13.67 22.35 -13.34 20.7 -13 19 C-12.01 19 -11.02 19 -10 19 C-10 18.01 -10 17.02 -10 16 C-9.34 16 -8.68 16 -8 16 C-7.9175 15.175 -7.835 14.35 -7.75 13.5 C-7.09926777 10.46324961 -6.35230638 8.49006516 -4.953125 5.78125 C-4.58864258 5.07033203 -4.22416016 4.35941406 -3.84863281 3.62695312 C-3.56858398 3.09005859 -3.28853516 2.55316406 -3 2 C-23.85371534 2.06056355 -44.70730651 2.13808407 -65.56088257 2.23571491 C-75.24386506 2.28065397 -84.92681093 2.32007302 -94.60986328 2.34643555 C-103.05097367 2.3694309 -111.49196797 2.40284617 -119.93298626 2.44870156 C-124.4012136 2.47261301 -128.86932613 2.49135541 -133.33761597 2.49761391 C-137.54671355 2.50367416 -141.75551742 2.5237079 -145.96450615 2.55427551 C-147.50595495 2.56304068 -149.04744217 2.56678148 -150.58891487 2.56500816 C-160.696102 2.55705481 -169.04694452 2.64767224 -176.8125 9.9375 C-177.54082031 10.60652344 -178.26914063 11.27554688 -179.01953125 11.96484375 C-181.04567285 13.94974529 -181.04567285 13.94974529 -182.63671875 16.25390625 C-183.08660156 16.83011719 -183.53648437 17.40632813 -184 18 C-184.66 18 -185.32 18 -186 18 C-186.33 18.66 -186.66 19.32 -187 20 C-186.48070626 15.58600323 -185.0815114 12.1893643 -182 9 C-174.75261398 3.58710857 -168.02381973 -0.22562046 -158.81890869 -0.28520203 C-156.99023506 -0.30411499 -156.99023506 -0.30411499 -155.12461853 -0.32341003 C-153.78653009 -0.32736948 -152.44844106 -0.3311318 -151.11035156 -0.3347168 C-149.69040784 -0.34566238 -148.27047042 -0.35745427 -146.85054016 -0.37002563 C-143.00065675 -0.40156502 -139.15080042 -0.42085983 -135.30082798 -0.43764853 C-131.25330472 -0.45707873 -127.20585537 -0.48678903 -123.15838623 -0.51509094 C-116.34927055 -0.56114773 -109.54014529 -0.59952746 -102.73095703 -0.63305664 C-94.90242473 -0.67167003 -87.07401851 -0.72093776 -79.24558854 -0.77638692 C-71.67872649 -0.82984065 -64.11183832 -0.87683356 -56.54491425 -0.92057228 C-53.34444478 -0.93910491 -50.14399697 -0.95958058 -46.94355011 -0.98166466 C-14.94506683 -1.19737162 -14.94506683 -1.19737162 0 0 Z " fill="#82C5D1" transform="translate(422,142)"/>
<path d="M0 0 C0.66 0 1.32 0 2 0 C1.96519531 1.44632813 1.96519531 1.44632813 1.9296875 2.921875 C1.91164062 4.18515625 1.89359375 5.4484375 1.875 6.75 C1.85179687 8.00296875 1.82859375 9.2559375 1.8046875 10.546875 C1.99084544 13.83814735 2.46143037 15.21361405 4 18 C4 19.32 4 20.64 4 22 C4.66 22 5.32 22 6 22 C6.66 22.99 7.32 23.98 8 25 C8.99 25.33 9.98 25.66 11 26 C11 26.66 11 27.32 11 28 C19.94548066 30.06215532 28.71488656 30.30631774 37.84448242 30.31884766 C39.41259264 30.32816427 40.98069797 30.33833547 42.54879761 30.34928894 C46.77320782 30.37640784 50.99758502 30.39168413 55.22205901 30.40471697 C59.64899811 30.42042744 64.0758706 30.4471921 68.50276184 30.4727478 C76.87116336 30.51939621 85.23957761 30.55620745 93.60804206 30.58942068 C103.14140984 30.62774098 112.67471048 30.67712496 122.20802152 30.72740483 C141.805298 30.83051719 161.40261705 30.91984442 181 31 C180.70260484 29.57058419 180.39958404 28.14233817 180.09423828 26.71459961 C179.92610626 25.91912216 179.75797424 25.12364471 179.58474731 24.30406189 C178.78041763 21.13478631 177.42095067 18.4340847 175.875 15.5625 C173 10.17703349 173 10.17703349 173 8 C176 9 176 9 177.5703125 11.80078125 C178.08335937 12.95964844 178.59640625 14.11851562 179.125 15.3125 C179.64320313 16.46363281 180.16140625 17.61476562 180.6953125 18.80078125 C182.75302191 23.84648186 183.03251968 27.51964066 183 33 C161.47720677 33.07009892 139.95443237 33.12299253 118.43154812 33.15543652 C108.43796916 33.17090161 98.44446115 33.19198433 88.45092773 33.22631836 C79.73998134 33.25623162 71.02908635 33.27557761 62.31809002 33.28226548 C57.70620649 33.28617447 53.09446998 33.29535373 48.48263359 33.31719017 C44.13983221 33.33758574 39.79723811 33.34382759 35.45439339 33.33932304 C33.86250303 33.34014687 32.27060558 33.34609426 30.67875671 33.35761642 C28.50018004 33.37260905 26.32237934 33.36892957 24.14378357 33.36076355 C22.31725077 33.36491162 22.31725077 33.36491162 20.45381832 33.36914349 C13.84817094 32.66313307 7.88298641 29.48491686 3 25 C1.6875 22.5 1.6875 22.5 1 20 C0.6596875 19.23816406 0.319375 18.47632813 -0.03125 17.69140625 C-1.08883974 14.75318315 -1.23508874 12.54807338 -1.1875 9.4375 C-1.18105469 8.50808594 -1.17460937 7.57867187 -1.16796875 6.62109375 C-1.01753445 4.27361898 -0.66160428 2.24945456 0 0 Z " fill="#84CCDB" transform="translate(233,163)"/>
<path d="M0 0 C0.95672607 -0.00029205 1.91345215 -0.00058411 2.89916992 -0.00088501 C6.04827068 0.00050366 9.19713219 0.01604321 12.34619141 0.03173828 C14.5347989 0.03547005 16.72340806 0.03831625 18.91201782 0.04031372 C24.66266521 0.04793724 30.41321101 0.0675748 36.16381836 0.08972168 C42.03579332 0.11020767 47.90778474 0.11932133 53.77978516 0.12939453 C65.29415262 0.15082184 76.8084448 0.18494238 88.32275391 0.22705078 C84.3931541 2.84678398 81.05489985 2.50443535 76.49609375 2.48242188 C75.14186813 2.48785255 75.14186813 2.48785255 73.76028442 2.49339294 C71.79761135 2.50029116 69.83491908 2.50279159 67.87223434 2.50144577 C64.76093328 2.50048123 61.64997839 2.51341624 58.53872681 2.53042603 C49.69186121 2.57670761 40.84502931 2.60128695 31.99804688 2.60791016 C26.58685191 2.6129382 21.1760155 2.63725917 15.76494217 2.67323685 C13.70699852 2.68300992 11.64900537 2.68538046 9.59104538 2.68006516 C6.70223766 2.67295727 3.81448906 2.69035519 0.92578125 2.71289062 C0.08388245 2.70471817 -0.75801636 2.69654572 -1.62542725 2.68812561 C-9.06846981 2.79080929 -15.00945379 4.93142768 -20.67333984 9.80517578 C-21.88183594 11.12775391 -21.88183594 11.12775391 -23.11474609 12.47705078 C-24.60414766 14.08998644 -26.11749447 15.68204161 -27.67724609 17.22705078 C-28.33724609 17.22705078 -28.99724609 17.22705078 -29.67724609 17.22705078 C-30.00724609 18.54705078 -30.33724609 19.86705078 -30.67724609 21.22705078 C-31.33724609 21.22705078 -31.99724609 21.22705078 -32.67724609 21.22705078 C-30.18045948 13.23733363 -24.88956256 7.90822704 -18.02099609 3.45361328 C-11.96791095 0.28583206 -6.6822043 -0.05369769 0 0 Z " fill="#87CBDB" transform="translate(292.67724609375,68.77294921875)"/>
<path d="M0 0 C0.66 0 1.32 0 2 0 C1.96519531 1.44632813 1.96519531 1.44632813 1.9296875 2.921875 C1.91164062 4.18515625 1.89359375 5.4484375 1.875 6.75 C1.85179687 8.00296875 1.82859375 9.2559375 1.8046875 10.546875 C1.99084544 13.83814735 2.46143037 15.21361405 4 18 C4 19.32 4 20.64 4 22 C4.66 22 5.32 22 6 22 C6.66 22.99 7.32 23.98 8 25 C8.99 25.33 9.98 25.66 11 26 C11 26.66 11 27.32 11 28 C14.63 28.66 18.26 29.32 22 30 C21.67 30.99 21.34 31.98 21 33 C16.17445262 32.52690712 12.98539873 31.7591222 9 29 C7.948125 28.38125 6.89625 27.7625 5.8125 27.125 C2.73172384 24.79730246 2.06143795 23.62657965 1 20 C0.65839844 19.236875 0.31679687 18.47375 -0.03515625 17.6875 C-1.08905124 14.75195445 -1.23503406 12.54449869 -1.1875 9.4375 C-1.18105469 8.50808594 -1.17460937 7.57867187 -1.16796875 6.62109375 C-1.01753445 4.27361898 -0.66160428 2.24945456 0 0 Z " fill="#7DC3D2" transform="translate(233,163)"/>
<path d="M0 0 C0 0.66 0 1.32 0 2 C-1.10794922 2.24169922 -1.10794922 2.24169922 -2.23828125 2.48828125 C-10.69795752 4.75637743 -15.13506877 8.41684416 -20.8203125 14.734375 C-21.53960937 15.48203125 -22.25890625 16.2296875 -23 17 C-23.66 17 -24.32 17 -25 17 C-25.33 18.32 -25.66 19.64 -26 21 C-26.66 21 -27.32 21 -28 21 C-25.22441677 12.11813366 -18.96851002 6.35688317 -11 2 C-7.16105008 0.37582888 -4.15780704 -0.24457688 0 0 Z " fill="#7FC3D2" transform="translate(288,69)"/>
<path d="M0 0 C1.11328125 1.71484375 1.11328125 1.71484375 2 4 C-0.11074932 11.94718367 -6.39943871 19.21238657 -12 25 C-12.66 25 -13.32 25 -14 25 C-14 24.01 -14 23.02 -14 22 C-13.01 22 -12.02 22 -11 22 C-10.67 20.35 -10.34 18.7 -10 17 C-9.01 17 -8.02 17 -7 17 C-7 16.01 -7 15.02 -7 14 C-6.34 14 -5.68 14 -5 14 C-4.87625 12.7625 -4.87625 12.7625 -4.75 11.5 C-3.83552731 7.23246079 -2.07776822 3.80763106 0 0 Z " fill="#7FC4D4" transform="translate(419,144)"/>
<path d="M0 0 C3 1 3 1 4.60546875 3.6953125 C5.12753906 4.82710937 5.64960938 5.95890625 6.1875 7.125 C6.71730469 8.24132812 7.24710937 9.35765625 7.79296875 10.5078125 C9.07910483 14.22886641 9.22369165 17.09285259 9 21 C7.12830924 17.39224824 5.53191636 13.67332227 3.9375 9.9375 C3.66873047 9.31294922 3.39996094 8.68839844 3.12304688 8.04492188 C1.98394603 5.38323236 0.91605029 2.74815086 0 0 Z " fill="#7FC4D2" transform="translate(406,171)"/>
<path d="M0 0 C0.33 0.99 0.66 1.98 1 3 C1.66 3 2.32 3 3 3 C3.45375 3.928125 3.9075 4.85625 4.375 5.8125 C5.9421633 9.03921389 5.9421633 9.03921389 8 12 C3.78456242 10.49448658 2.13950875 7.82055134 0 4 C0 2.68 0 1.36 0 0 Z " fill="#79BECC" transform="translate(260,105)"/>
<path d="M0 0 C0.66 0.33 1.32 0.66 2 1 C-0.31 3.31 -2.62 5.62 -5 8 C-5.99 7.67 -6.98 7.34 -8 7 C-5.36 4.69 -2.72 2.38 0 0 Z " fill="#737677" transform="translate(205,74)"/>
<path d="M0 0 C2 1 2 1 2 1 Z " fill="#80C6D5" transform="translate(411,166)"/>
<path d="M0 0 C2 1 2 1 2 1 Z " fill="#76BAC9" transform="translate(271,136)"/>
<path d="" fill="#77AEBB" transform="translate(0,0)"/>
<path d="" fill="#79A8B3" transform="translate(0,0)"/>
<path d="" fill="#7CC2D2" transform="translate(0,0)"/>
<path d="" fill="#79ACB8" transform="translate(0,0)"/>
<path d="" fill="#75C3D5" transform="translate(0,0)"/>
<path d="" fill="#79CADC" transform="translate(0,0)"/>
<path d="" fill="#7BC1D0" transform="translate(0,0)"/>
<path d="" fill="#77C1D1" transform="translate(0,0)"/>
<path d="" fill="#77C7D9" transform="translate(0,0)"/>
<path d="" fill="#70BBCC" transform="translate(0,0)"/>
<path d="" fill="#7EC6D5" transform="translate(0,0)"/>
<path d="" fill="#76C3D4" transform="translate(0,0)"/>
<path d="" fill="#78C9DA" transform="translate(0,0)"/>
<path d="" fill="#76C3D4" transform="translate(0,0)"/>
<path d="" fill="#76C3D5" transform="translate(0,0)"/>
<path d="" fill="#76C3D4" transform="translate(0,0)"/>
<path d="" fill="#7DC3D2" transform="translate(0,0)"/>
<path d="" fill="#71BBCC" transform="translate(0,0)"/>
<path d="" fill="#76C3D4" transform="translate(0,0)"/>
<path d="" fill="#7ACDDF" transform="translate(0,0)"/>
<path d="" fill="#7DC4D4" transform="translate(0,0)"/>
<path d="" fill="#71BBCC" transform="translate(0,0)"/>
<path d="" fill="#80C5D4" transform="translate(0,0)"/>
<path d="" fill="#7DC2D1" transform="translate(0,0)"/>
<path d="" fill="#7BCFE0" transform="translate(0,0)"/>
<path d="" fill="#7FC6D5" transform="translate(0,0)"/>
<path d="" fill="#70BBCC" transform="translate(0,0)"/>
<path d="" fill="#7CCEE0" transform="translate(0,0)"/>
<path d="" fill="#71BBCC" transform="translate(0,0)"/>
<path d="" fill="#76C4D5" transform="translate(0,0)"/>
<path d="" fill="#6FBCCC" transform="translate(0,0)"/>
<path d="" fill="#88CBD8" transform="translate(0,0)"/>
<path d="" fill="#74C4D5" transform="translate(0,0)"/>
<path d="" fill="#7EC5D4" transform="translate(0,0)"/>
<path d="" fill="#78C1D0" transform="translate(0,0)"/>
<path d="" fill="#7AC3D2" transform="translate(0,0)"/>
<path d="" fill="#7BCBDD" transform="translate(0,0)"/>
<path d="" fill="#7ACADB" transform="translate(0,0)"/>
<path d="" fill="#7FC6D5" transform="translate(0,0)"/>
<path d="" fill="#72BBCB" transform="translate(0,0)"/>
<path d="" fill="#7BC0CE" transform="translate(0,0)"/>
<path d="" fill="#72BBCC" transform="translate(0,0)"/>
<path d="" fill="#71AAB6" transform="translate(0,0)"/>
<path d="" fill="#7ABECD" transform="translate(0,0)"/>
<path d="" fill="#7BBFCD" transform="translate(0,0)"/>
<path d="" fill="#71ABB8" transform="translate(0,0)"/>
<path d="" fill="#76C3D5" transform="translate(0,0)"/>
<path d="" fill="#76C3D5" transform="translate(0,0)"/>
<path d="" fill="#71ABB8" transform="translate(0,0)"/>
<path d="" fill="#77C3D5" transform="translate(0,0)"/>
<path d="" fill="#76BDCD" transform="translate(0,0)"/>
<path d="" fill="#76B9C8" transform="translate(0,0)"/>
<path d="" fill="#78949A" transform="translate(0,0)"/>
<path d="" fill="#78C6D8" transform="translate(0,0)"/>
<path d="" fill="#77C0D0" transform="translate(0,0)"/>
<path d="" fill="#71B1BF" transform="translate(0,0)"/>
<path d="" fill="#77A7B2" transform="translate(0,0)"/>
<path d="" fill="#739299" transform="translate(0,0)"/>
<path d="" fill="#72BBCC" transform="translate(0,0)"/>
<path d="" fill="#84C2CF" transform="translate(0,0)"/>
<path d="" fill="#80C1D0" transform="translate(0,0)"/>
<path d="" fill="#7AAAB5" transform="translate(0,0)"/>
<path d="" fill="#7A959B" transform="translate(0,0)"/>
<path d="" fill="#86C3D0" transform="translate(0,0)"/>
<path d="" fill="#768A8F" transform="translate(0,0)"/>
<path d="" fill="#758387" transform="translate(0,0)"/>
<path d="" fill="#789298" transform="translate(0,0)"/>
<path d="" fill="#77898E" transform="translate(0,0)"/>
<path d="" fill="#72A3AE" transform="translate(0,0)"/>
<path d="" fill="#7BBBC9" transform="translate(0,0)"/>
<path d="" fill="#7CC1CF" transform="translate(0,0)"/>
<path d="" fill="#78C6D8" transform="translate(0,0)"/>
<path d="" fill="#7A8284" transform="translate(0,0)"/>
<path d="" fill="#77C3D5" transform="translate(0,0)"/>
<path d="" fill="#72A3AE" transform="translate(0,0)"/>
<path d="" fill="#72BBCC" transform="translate(0,0)"/>
<path d="" fill="#758488" transform="translate(0,0)"/>
<path d="" fill="#80C5D2" transform="translate(0,0)"/>
<path d="" fill="#7CB1BD" transform="translate(0,0)"/>
<path d="" fill="#7CB7C3" transform="translate(0,0)"/>
<path d="" fill="#80C5D3" transform="translate(0,0)"/>
<path d="" fill="#7AAAB5" transform="translate(0,0)"/>
<path d="" fill="#84888A" transform="translate(0,0)"/>
<path d="" fill="#79C0CE" transform="translate(0,0)"/>
<path d="" fill="#77C3D5" transform="translate(0,0)"/>
<path d="" fill="#808486" transform="translate(0,0)"/>
<path d="" fill="#7B7F80" transform="translate(0,0)"/>
<path d="" fill="#808486" transform="translate(0,0)"/>
<path d="" fill="#79ACB8" transform="translate(0,0)"/>
<path d="" fill="#747779" transform="translate(0,0)"/>
<path d="" fill="#797D7E" transform="translate(0,0)"/>
<path d="" fill="#7BC0D0" transform="translate(0,0)"/>
<path d="" fill="#72A9B7" transform="translate(0,0)"/>
<path d="" fill="#748083" transform="translate(0,0)"/>
<path d="" fill="#79B9C8" transform="translate(0,0)"/>
<path d="" fill="#7B8A8E" transform="translate(0,0)"/>
<path d="" fill="#7ABACA" transform="translate(0,0)"/>
<path d="" fill="#789CA4" transform="translate(0,0)"/>
<path d="" fill="#71BBCC" transform="translate(0,0)"/>
<path d="" fill="#78B9C9" transform="translate(0,0)"/>
<path d="" fill="#789CA4" transform="translate(0,0)"/>
<path d="" fill="#739198" transform="translate(0,0)"/>
<path d="" fill="#798D92" transform="translate(0,0)"/>
<path d="" fill="#77B6C5" transform="translate(0,0)"/>
<path d="" fill="#72A9B7" transform="translate(0,0)"/>
<path d="" fill="#798B8F" transform="translate(0,0)"/>
<path d="" fill="#798B8F" transform="translate(0,0)"/>
</svg>
